<?xml version="1.0" encoding="UTF-8"?>
<svg width="164px" height="44px" viewBox="0 0 520 139" version="1.1" xmlns="http://www.w3.org/2000/svg" xmlns:xlink="http://www.w3.org/1999/xlink">
    <defs>
        <polygon id="path-1" points="0.813 0.883 55.081 0.883 55.081 138.94 0.813 138.94"></polygon>
    </defs>
    <g id="Page-1" stroke="none" stroke-width="1" fill="none" fill-rule="evenodd">
        <g id="Symphony-Retail-Logo-White&amp;Green-V2">
            <path d="M193.243,53.333 C199.37,53.333 202.549,49.857 203.198,46.677 C203.963,41.671 200.077,39.137 195.481,38.078 L190.004,36.841 C181.582,34.956 180.463,30.067 180.463,26.651 C180.463,20.054 186.705,15.578 193.184,15.578 C200.37,15.578 205.907,20.114 205.907,27.181 L202.02,27.181 C202.02,22.469 198.192,19.466 193.184,19.466 C188.707,19.466 184.35,22.351 184.35,26.651 C184.35,28.771 185.116,31.775 190.829,33.071 L196.366,34.308 C202.844,35.781 208.204,39.609 207.026,47.384 C206.084,52.096 201.608,57.219 193.243,57.219 C185.233,57.219 180.11,50.918 180.11,44.968 L183.997,44.968 C183.997,49.033 187.588,53.333 193.243,53.333" id="Fill-1" fill="#FFFFFE"></path>
            <polyline id="Fill-2" fill="#FFFFFE" points="232.024 56.631 228.018 56.631 228.018 37.783 212.762 16.05 217.416 16.05 230.02 33.543 242.743 16.05 247.454 16.05 232.024 37.783 232.024 56.631"></polyline>
            <polyline id="Fill-3" fill="#FFFFFE" points="294.456 16.05 298.344 16.05 303.291 56.631 299.463 56.631 295.34 23 281.028 52.214 277.139 52.214 262.768 23 258.645 56.631 254.817 56.631 259.764 16.05 263.653 16.05 279.084 47.678 294.456 16.05"></polyline>
            <path d="M318.545,19.937 L318.545,36.9 L330.266,36.9 C335.981,36.9 338.1,32.777 338.1,28.477 C338.1,24.178 335.981,19.937 330.561,19.937 L318.545,19.937 Z M330.561,16.05 C338.807,16.05 341.989,22.234 341.989,28.477 C341.989,34.721 338.807,40.787 330.561,40.787 L318.545,40.787 L318.545,56.631 L314.6,56.631 L314.6,16.05 L330.561,16.05 Z" id="Fill-4" fill="#FFFFFE"></path>
            <polyline id="Fill-5" fill="#FFFFFE" points="380.979 56.631 377.092 56.631 377.092 38.313 354.829 38.313 354.829 56.631 350.94 56.631 350.94 16.05 354.829 16.05 354.829 34.662 377.092 34.662 377.092 16.05 380.979 16.05 380.979 56.631"></polyline>
            <path d="M413.87,53.333 C423.235,53.333 430.42,45.794 430.42,36.428 C430.42,27.063 423.235,19.466 413.87,19.466 C404.504,19.466 397.377,27.063 397.377,36.428 C397.377,45.794 404.504,53.333 413.87,53.333 Z M413.87,15.578 C425.413,15.578 434.307,24.885 434.307,36.428 C434.307,47.914 425.413,57.219 413.87,57.219 C402.383,57.219 393.491,47.914 393.491,36.428 C393.491,24.885 402.383,15.578 413.87,15.578 Z" id="Fill-6" fill="#FFFFFE"></path>
            <polyline id="Fill-7" fill="#FFFFFE" points="471.409 56.631 450.735 22.646 450.735 56.631 446.846 56.631 446.846 16.05 451.028 16.05 471.526 49.799 471.526 16.05 475.413 16.05 475.413 56.631 471.409 56.631"></polyline>
            <polyline id="Fill-8" fill="#FFFFFE" points="504.639 56.631 500.633 56.631 500.633 37.783 485.379 16.05 490.032 16.05 502.637 33.543 515.358 16.05 520.071 16.05 504.639 37.783 504.639 56.631"></polyline>
            <path d="M147.902,32.707 C147.902,36.748 144.626,40.023 140.586,40.023 C136.546,40.023 133.271,36.748 133.271,32.707 C133.271,28.667 136.546,25.391 140.586,25.391 C144.626,25.391 147.902,28.667 147.902,32.707" id="Fill-9" fill="#6CB644"></path>
            <path d="M156.68,73.511 C156.68,76.474 154.279,78.876 151.316,78.876 C148.353,78.876 145.951,76.474 145.951,73.511 C145.951,70.549 148.353,68.147 151.316,68.147 C154.279,68.147 156.68,70.549 156.68,73.511" id="Fill-10" fill="#6CB644"></path>
            <path d="M139.412,110.542 C139.412,114.203 136.444,117.17 132.783,117.17 C129.122,117.17 126.155,114.203 126.155,110.542 C126.155,106.881 129.122,103.913 132.783,103.913 C136.444,103.913 139.412,106.881 139.412,110.542" id="Fill-11" fill="#6CB644"></path>
            <path d="M120.949,64.284 C120.949,67.247 118.546,69.648 115.583,69.648 C112.622,69.648 110.219,67.247 110.219,64.284 C110.219,61.321 112.622,58.92 115.583,58.92 C118.546,58.92 120.949,61.321 120.949,64.284" id="Fill-12" fill="#6CB644"></path>
            <path d="M43.639,94.158 C39.67,94.158 36.453,90.941 36.453,86.972 C36.453,83.005 39.67,79.787 43.639,79.787 C47.607,79.787 50.825,83.005 50.825,86.972 C50.825,90.941 47.607,94.158 43.639,94.158" id="Fill-13" fill="#FFFFFE"></path>
            <path d="M18.369,76.802 C15.407,76.802 13.004,74.4 13.004,71.437 C13.004,68.474 15.407,66.072 18.369,66.072 C21.331,66.072 23.734,68.474 23.734,71.437 C23.734,74.4 21.331,76.802 18.369,76.802" id="Fill-14" fill="#FFFFFE"></path>
            <path d="M26.348,28.372 C23.385,28.372 20.984,25.971 20.984,23.008 C20.984,20.045 23.385,17.642 26.348,17.642 C29.311,17.642 31.713,20.045 31.713,23.008 C31.713,25.971 29.311,28.372 26.348,28.372" id="Fill-15" fill="#FFFFFE"></path>
            <path d="M4.392,47.829 C1.966,47.829 0,45.862 0,43.436 C0,41.011 1.966,39.045 4.392,39.045 C6.818,39.045 8.785,41.011 8.785,43.436 C8.785,45.862 6.818,47.829 4.392,47.829" id="Fill-16" fill="#FFFFFE"></path>
            <path d="M33.654,51.73 C30.151,51.73 27.311,48.89 27.311,45.387 C27.311,41.885 30.151,39.045 33.654,39.045 C37.158,39.045 39.998,41.885 39.998,45.387 C39.998,48.89 37.158,51.73 33.654,51.73" id="Fill-17" fill="#FFFFFE"></path>
            <path d="M63.654,116.327 C60.691,116.327 58.289,113.925 58.289,110.962 C58.289,108 60.691,105.597 63.654,105.597 C66.617,105.597 69.018,108 69.018,110.962 C69.018,113.925 66.617,116.327 63.654,116.327" id="Fill-18" fill="#FFFFFE"></path>
            <path d="M104.276,111.993 L103.159,110.864 C103.469,110.556 134.153,79.703 129.692,44.59 L129.368,42.04 L131.074,43.962 C131.783,44.76 148.463,63.624 151.712,73.258 L151.984,74.062 L151.16,74.28 C151.004,74.322 135.665,78.74 133.576,110.649 L131.991,110.548 C133.907,81.282 146.525,74.365 149.936,73.021 C146.908,65.281 135.763,51.856 131.532,46.914 C134.378,81.748 104.584,111.687 104.276,111.993" id="Fill-19" fill="#6CB644"></path>
            <path d="M74.789,91.499 L74.122,90.056 C99.598,78.266 112.377,65.638 112.505,65.51 L113.628,66.634 C113.5,66.761 100.546,79.579 74.789,91.499" id="Fill-20" fill="#6CB644"></path>
            <path d="M78.097,132.134 L77.021,130.964 C77.767,130.278 95.348,114.136 102.091,111.934 L102.584,113.445 C96.166,115.538 78.278,131.968 78.097,132.134" id="Fill-21" fill="#FFFFFE"></path>
            <path d="M103.625,110.486 C62.511,89.298 56.499,61.302 55.944,58.137 C57.607,55.797 70.471,38.158 85.542,30.529 L84.826,29.111 C68.389,37.43 54.592,57.293 54.455,57.493 L54.284,57.742 L54.321,58.041 C54.362,58.36 55.373,65.986 61.943,76.524 C67.975,86.2 80.057,100.232 103.356,112.136 L103.625,112.273 L103.625,110.486" id="Fill-22" fill="#FFFFFE"></path>
            <path d="M133.564,110.449 C133.32,109.175 127.462,79.031 116.223,63.811 L114.945,64.755 C124.652,77.899 130.444,103.316 131.73,109.412 C119.315,105.593 106.082,109.771 103.774,110.566 C103.564,110.458 103.368,110.346 103.159,110.237 L103.159,112.033 L103.356,112.136 L103.665,112.294 L103.992,112.175 C104.142,112.115 119.343,106.649 132.516,111.346 L133.825,111.813 L133.564,110.449" id="Fill-23" fill="#6CB644"></path>
            <path d="M125.082,16.377 L124.837,15.924 L124.324,15.963 C102.453,17.629 87.538,27.242 85.072,28.928 L85.011,28.903 L85.011,30.603 L85.308,30.715 L85.654,30.461 C85.804,30.349 100.823,19.493 123.92,17.588 C124.833,19.413 128.143,26.497 129.044,34.873 C130.399,47.465 125.949,56.997 115.817,63.218 C113.244,59.475 99.511,39.877 88.208,30.63 L87.204,31.858 C99.485,41.908 114.773,64.501 114.925,64.727 L115.342,65.346 L115.986,64.969 C142.593,49.355 125.261,16.704 125.082,16.377" id="Fill-24" fill="#6CB644"></path>
            <path d="M84.295,28.616 C69.543,22.675 55.805,9.391 55.663,9.255 L54.555,10.393 C54.7,10.534 69.018,24.382 84.295,30.324 L84.295,28.616" id="Fill-25" fill="#FFFFFE"></path>
            <path d="M62.671,9.824 C62.671,14.001 59.286,17.387 55.109,17.387 C50.933,17.387 47.547,14.001 47.547,9.824 C47.547,5.648 50.933,2.262 55.109,2.262 C59.286,2.262 62.671,5.648 62.671,9.824" id="Fill-26" fill="#FFFFFE"></path>
            <path d="M79.819,90.132 C79.819,93.094 77.417,95.497 74.454,95.497 C71.492,95.497 69.09,93.094 69.09,90.132 C69.09,87.169 71.492,84.767 74.454,84.767 C77.417,84.767 79.819,87.169 79.819,90.132" id="Fill-27" fill="#FFFFFE"></path>
            <path d="M109.081,111.429 C109.081,114.391 106.679,116.793 103.716,116.793 C100.753,116.793 98.352,114.391 98.352,111.429 C98.352,108.466 100.753,106.063 103.716,106.063 C106.679,106.063 109.081,108.466 109.081,111.429" id="Fill-28" fill="#FFFFFE"></path>
            <path d="M61.904,57.944 C61.904,61.697 58.862,64.739 55.109,64.739 C51.356,64.739 48.314,61.697 48.314,57.944 C48.314,54.191 51.356,51.149 55.109,51.149 C58.862,51.149 61.904,54.191 61.904,57.944" id="Fill-29" fill="#FFFFFE"></path>
            <path d="M86.12,29.111 C86.835,25.582 90.489,11.573 103.971,7.001 L103.462,5.496 C88.808,10.466 85.12,25.889 84.502,29.111 L86.12,29.111" id="Fill-30" fill="#FFFFFE"></path>
            <path d="M86.102,29.196 L86.12,29.111 L84.502,29.111 C84.432,29.475 84.4,29.692 84.397,29.712 L84.295,30.448 L85.024,30.598 C100.694,33.814 113.84,34.674 123.421,34.674 C134.33,34.674 140.614,33.558 140.731,33.539 L140.442,31.974 C140.23,32.016 118.882,35.799 86.102,29.196" id="Fill-31" fill="#6CB644"></path>
            <path d="M103.461,5.346 L103.461,7.012 C130.743,15.244 150.521,39.02 150.521,67.009 C150.521,101.8 119.971,130.102 82.422,130.102 C80.82,130.102 79.201,130.05 77.612,129.947 L77.509,131.533 C79.132,131.638 80.786,131.691 82.422,131.691 C120.848,131.691 152.109,102.675 152.109,67.009 C152.109,38.147 131.634,13.646 103.461,5.346" id="Fill-32" fill="#6CB644"></path>
            <g id="Group-38" transform="translate(54.000000, 0.000000)">
                <mask id="mask-2" fill="white">
                    <use xlink:href="#path-1"></use>
                </mask>
                <g id="Clip-34"></g>
                <path d="M28.422,3.915 C35.652,3.915 42.617,4.973 49.159,6.916 L49.159,5.251 C42.606,3.351 35.641,2.327 28.422,2.327 C18.833,2.327 9.543,4.101 0.813,7.601 L1.406,9.075 C9.945,5.651 19.036,3.915 28.422,3.915" id="Fill-33" fill="#FFFFFE" mask="url(#mask-2)"></path>
                <path d="M55.081,6.248 C55.081,9.211 52.679,11.612 49.716,11.612 C46.753,11.612 44.352,9.211 44.352,6.248 C44.352,3.285 46.753,0.883 49.716,0.883 C52.679,0.883 55.081,3.285 55.081,6.248" id="Fill-35" fill="#FFFFFE" mask="url(#mask-2)"></path>
                <path d="M37.075,29.82 C37.075,33.073 34.438,35.711 31.184,35.711 C27.93,35.711 25.292,33.073 25.292,29.82 C25.292,26.566 27.93,23.928 31.184,23.928 C34.438,23.928 37.075,26.566 37.075,29.82" id="Fill-36" fill="#FFFFFE" mask="url(#mask-2)"></path>
                <path d="M31.011,131.549 C31.011,135.664 27.675,139 23.56,139 C19.445,139 16.109,135.664 16.109,131.549 C16.109,127.433 19.445,124.097 23.56,124.097 C27.675,124.097 31.011,127.433 31.011,131.549" id="Fill-37" fill="#FFFFFE" mask="url(#mask-2)"></path>
            </g>
            <path d="M190.758,79.014 L190.758,93.187 L199.818,93.187 C203.982,93.187 206.174,89.389 206.174,86.101 C206.174,82.96 204.128,79.014 200.11,79.014 L190.758,79.014 Z M217.279,119.928 L204.42,119.928 L193.169,102.539 L190.758,102.539 L190.758,119.928 L180.019,119.928 L180.019,69.59 L200.622,69.59 C212.019,69.59 217.352,77.845 217.352,86.101 C217.352,93.261 213.407,100.275 204.786,102.101 L217.279,119.928 Z" id="Fill-39" fill="#FFFFFE"></path>
            <polyline id="Fill-40" fill="#FFFFFE" points="225.392 69.59 257.246 69.59 257.246 79.014 236.058 79.014 236.058 90.484 254.616 90.484 254.616 99.764 236.058 99.764 236.058 110.503 257.903 110.503 257.903 119.928 225.392 119.928 225.392 69.59"></polyline>
            <polyline id="Fill-41" fill="#FFFFFE" points="263.531 69.59 301.521 69.59 301.521 79.234 287.932 79.234 287.932 119.928 277.12 119.928 277.12 79.234 263.531 79.234 263.531 69.59"></polyline>
            <path d="M326.583,98.74 L321.249,81.207 L316.135,98.74 L326.583,98.74 Z M312.628,108.019 L308.172,119.928 L296.775,119.928 L315.478,69.59 L327.094,69.59 L345.724,119.928 L334.473,119.928 L330.017,108.019 L312.628,108.019 Z" id="Fill-42" fill="#6CB644"></path>
            <polyline id="Fill-43" fill="#FFFFFE" points="370.277 69.738 381.016 69.738 381.016 110.65 399.866 110.65 399.866 120.076 370.277 120.076 370.277 69.738"></polyline>
            <polygon id="Fill-44" fill="#6CB644" points="349.819 119.928 360.485 119.928 360.485 69.59 349.819 69.59"></polygon>
        </g>
    </g>
</svg>