<svg width="220" height="46" viewBox="0 0 220 46" fill="none" xmlns="http://www.w3.org/2000/svg">
<path d="M57.8108 39.8192H55.9571V43.8516H53.5754V33.46H58.4463C60.4757 33.46 61.9376 34.5564 61.9376 36.4903C61.9376 37.8568 61.1803 38.8171 60.0433 39.2781L62.2351 43.8516H59.624L57.8108 39.8192ZM55.9571 38.006H58.1763C58.9205 38.006 59.5428 37.5725 59.5428 36.6528C59.5428 35.733 58.9205 35.2995 58.1763 35.2995H55.9571V38.006Z" fill="#250144"/>
<path d="M63.9944 43.8516V33.46H71.2602V35.3006H66.3619V37.6954H70.6105V39.5218H66.3619V42.011H71.3546V43.8516H63.9944Z" fill="#250144"/>
<path d="M76.388 43.8516V35.328H73.0866V33.4611H82.0701V35.328H78.7686V43.8516H76.3869H76.388Z" fill="#250144"/>
<path d="M88.4303 41.5786H84.3848L83.6132 43.8516H81.2183L85.0071 33.46H87.875L91.6769 43.8516H89.2008L88.4292 41.5786H88.4303ZM87.8212 39.7786L86.4273 35.6243H86.3999L84.9928 39.7786H87.8201H87.8212Z" fill="#250144"/>
<path d="M93.0181 43.8516V33.46H95.3998V43.8516H93.0181Z" fill="#250144"/>
<path d="M97.618 33.4611H99.9996V41.9847H104.843V43.8516H97.618V33.46V33.4611Z" fill="#250144"/>
<path d="M111.88 32.0716H113.706V45.6691H111.88V32.0716Z" fill="#250144"/>
<path d="M121.04 38.6832C121.04 35.6386 122.853 33.3118 126.114 33.3118C128.008 33.3118 129.402 34.124 130.281 35.5442L128.562 36.667C128.021 35.666 127.264 35.1381 126.195 35.1381C124.314 35.1381 123.448 36.7482 123.448 38.6558C123.448 40.5633 124.301 42.1734 126.236 42.1734C127.305 42.1734 128.076 41.6455 128.617 40.6983L130.322 41.7673C129.428 43.1612 128.089 43.9998 126.128 43.9998C122.867 43.9998 121.041 41.7542 121.041 38.6821L121.04 38.6832Z" fill="#250144"/>
<path d="M136.897 33.4611C138.995 33.4611 140.712 34.6925 140.712 36.8975C140.712 39.1025 139.034 40.402 136.857 40.402H134.556V43.8527H132.174V33.4611H136.896H136.897ZM136.668 38.5614C137.561 38.5614 138.305 38.0609 138.305 36.9381C138.305 35.8153 137.561 35.3006 136.668 35.3006H134.557V38.5614H136.668Z" fill="#250144"/>
<path d="M151.997 38.1015V43.8516H149.914L149.86 42.7826H149.833C149.305 43.4455 148.466 44.0009 147.019 44.0009C143.934 44.0009 142.323 41.6466 142.323 38.737C142.323 35.8274 144.15 33.3118 147.573 33.3118C149.521 33.3118 150.928 34.0966 151.849 35.4092L150.158 36.5858C149.536 35.6386 148.751 35.1381 147.641 35.1381C145.706 35.1381 144.733 36.6945 144.733 38.6964C144.733 40.6983 145.626 42.1866 147.493 42.1866C148.778 42.1866 149.725 41.4293 149.725 40.076V39.9004H147.547V38.1004H151.998L151.997 38.1015Z" fill="#250144"/>
<path d="M6.7966 0.0274236C5.43344 0.187666 4.04504 0.835222 2.65773 1.95692L2.63578 1.97448L2.60724 1.97009C2.42724 1.94046 2.28017 1.94046 2.09359 1.94046C0.882988 2.02936 -0.0576147 3.10496 0.00275072 4.33861C0.0916525 5.5547 1.16945 6.4964 2.39981 6.43494C3.41175 6.37786 4.28101 5.59531 4.4665 4.57678L4.47089 4.55593L4.48625 4.54166C5.37088 3.73496 6.27636 3.33874 7.24331 3.33874C7.35526 3.33874 7.4694 3.34423 7.58355 3.3552C8.87976 3.50557 10.2517 4.33861 11.7817 5.90043C13.2853 7.4359 14.8197 9.50589 16.2542 11.5133L18.3571 14.491C19.2439 15.7455 20.1604 17.0428 21.0889 18.2578C21.9099 19.2906 23.0086 20.5956 24.2181 21.5109C25.5033 22.4834 26.7589 22.862 28.0518 22.6688L28.4667 22.5953L28.2296 22.311C25.7865 19.7439 23.8131 16.8266 22.372 14.6962L19.9113 11.1215C18.1585 8.58833 16.5023 6.19567 14.7692 4.29142C12.1867 1.39058 9.8917 0.0274236 7.54623 -1.52588e-05C7.18623 -1.52588e-05 6.93489 0.00986272 6.7966 0.0274236Z" fill="#A933FB"/>
<path d="M4.55979 12.6306L4.5576 12.6526C4.4665 13.7798 3.58407 14.6622 2.46127 14.75C2.42396 14.7522 2.38664 14.7522 2.34932 14.7522C1.16397 14.7522 0.149829 13.8313 0.0631221 12.6537C0.00275667 11.42 0.943359 10.3444 2.15615 10.2555H2.33615L5.991 6.51067C6.52222 5.96408 7.25868 5.65677 8.01489 5.68311C8.75025 5.70287 9.41976 6.01677 9.90049 6.56664L10.0245 6.74005L4.55979 12.6295V12.6306Z" fill="#1EACFC"/>
<path d="M2.35703 18.3906L2.30983 18.3884C1.07179 18.3884 0.0642395 19.3959 0.0642395 20.6351C0.0642395 21.8742 1.07179 22.8818 2.31093 22.8818C2.4141 22.8818 2.51288 22.8675 2.61605 22.8521L2.65995 22.8455C3.69385 22.6831 4.46652 21.8424 4.54116 20.7942V20.7723L13.8122 10.7417L11.7949 8.31504L2.35703 18.3906Z" fill="#FFB600"/>
<path d="M36.2033 24.2724C37.9166 24.0803 39.6068 23.1397 41.3848 21.3913L41.4035 21.3737H41.6757C42.8841 21.2826 43.7973 20.2081 43.7073 18.9778C43.6184 17.7606 42.5395 16.8167 41.3091 16.8803C40.1742 16.9703 39.305 17.8517 39.2435 18.9767V18.9986L39.2282 19.0151C37.9715 20.4474 36.7126 21.0785 35.3856 20.9457C34.0905 20.7953 32.7175 19.9623 31.1886 18.4005C29.6838 16.8639 28.1495 14.7939 26.7161 12.7865L24.6066 9.80003C23.7219 8.54882 22.8077 7.25371 21.8813 6.04201C21.0593 5.00921 19.9606 3.70422 18.7511 2.78887C17.4659 1.81643 16.2114 1.43778 14.9174 1.63095L14.5211 1.67814L14.7988 1.95582C17.2431 4.523 19.2176 7.44249 20.6587 9.57284L22.6913 12.5296C24.7503 15.5841 26.4801 18.024 28.2307 20.0084C30.8121 22.9081 33.1071 24.2713 35.4537 24.2987C35.8246 24.2987 36.0222 24.2888 36.2033 24.2713V24.2724Z" fill="#0074E8"/>
<path d="M41.4957 13.5185H41.6143C42.219 13.49 42.77 13.2299 43.1629 12.7865C43.5569 12.342 43.7501 11.7625 43.7073 11.1533C43.6206 9.97344 42.6064 9.0526 41.4211 9.0526C41.3838 9.0526 41.3476 9.0526 41.3102 9.05479C40.1567 9.14369 39.2743 10.0514 39.2128 11.2126V11.2367L33.0094 17.8934L33.1302 18.0383C33.6142 18.5936 34.2947 18.9086 35.0454 18.924C35.0641 18.924 35.0827 18.924 35.1003 18.924C35.8356 18.924 36.5403 18.6244 37.0386 18.0964L41.4935 13.5174L41.4957 13.5185Z" fill="#FB24A9"/>
<path d="M29.1933 13.8621L31.2369 16.2932L41.6779 5.14422L41.6999 5.14202C42.9149 5.02019 43.7962 3.96764 43.7073 2.74497C43.6184 1.52888 42.5417 0.58169 41.3092 0.647543C40.0744 0.737542 39.1525 1.77802 39.2128 3.01496V3.0413L29.1922 13.8621H29.1933Z" fill="#FF8500"/>
<path d="M52.7961 20.2817L55.2492 17.6267C56.8659 19.3301 59.1169 20.3113 61.6281 20.3113C64.7166 20.3113 66.1018 19.0996 66.1018 17.2228C66.1018 15.1737 64.1679 14.6249 60.8489 13.8456C57.1545 12.9511 53.5754 11.6812 53.5754 7.37993C53.5754 3.54179 56.5201 0.77047 61.773 0.77047C65.2084 0.77047 67.8348 1.89656 69.8258 3.85898L67.545 6.5436C66.015 4.98507 64.0812 4.0324 61.7148 4.0324C59.0302 4.0324 57.7022 5.30226 57.7022 6.97603C57.7022 8.99663 59.5494 9.42906 62.8113 10.238C66.7076 11.2192 70.2 12.432 70.2 16.8189C70.2 20.8019 67.1411 23.5732 61.5985 23.5732C57.7889 23.5732 54.9309 22.4186 52.795 20.2828L52.7961 20.2817Z" fill="#250144"/>
<path d="M85.332 7.7553L79.0112 24.2943C77.7995 27.4695 76.3562 28.8546 73.4981 28.8546C72.574 28.8546 71.8815 28.7109 71.3623 28.5375V25.7091C71.7377 25.7958 72.1712 25.8825 72.7189 25.8825C74.104 25.8825 74.9129 25.3633 75.4606 23.6314L69.3999 7.75639H73.5278L77.4241 19.2148H77.4823L81.3786 7.75639H85.3331L85.332 7.7553Z" fill="#250144"/>
<path d="M90.5838 9.83296C91.565 8.30298 93.0664 7.43701 95.1156 7.43701C97.1647 7.43701 98.8681 8.36115 99.6759 9.91967C100.772 8.2459 102.476 7.43701 104.553 7.43701C107.729 7.43701 109.836 9.42907 109.836 12.4309V23.2549H105.94V13.0653C105.94 11.622 105.103 10.497 103.342 10.497C101.436 10.497 100.253 11.825 100.253 13.614V23.2549H96.3569V13.0653C96.3569 11.622 95.4909 10.497 93.7875 10.497C91.8822 10.497 90.6705 11.825 90.6705 13.614V23.2549H86.7742V7.7553H90.44L90.5267 9.83296H90.5849H90.5838Z" fill="#250144"/>
<path d="M115.826 21.2629H115.769V28.5364H111.873V7.75529H115.539L115.625 10.0645H115.683C116.866 8.41931 118.656 7.4381 120.705 7.4381C124.89 7.4381 127.373 10.902 127.373 15.4338C127.373 19.9656 124.775 23.5732 120.59 23.5732C118.569 23.5732 116.982 22.7369 115.827 21.264L115.826 21.2629ZM123.418 15.4897C123.418 12.8633 122.235 10.497 119.522 10.497C116.954 10.497 115.654 12.7481 115.654 15.5765C115.654 18.4048 117.011 20.5121 119.493 20.5121C122.12 20.5121 123.419 18.2896 123.419 15.4897H123.418Z" fill="#250144"/>
<path d="M129.41 1.08767H133.306V9.8615H133.363C134.344 8.33151 135.961 7.43701 138.039 7.43701C141.242 7.43701 143.321 9.54431 143.321 12.7195V23.2549H139.425V13.355C139.425 11.7669 138.501 10.4981 136.654 10.4981C134.576 10.4981 133.305 11.9699 133.305 13.9323V23.2549H129.409V1.08767H129.41Z" fill="#250144"/>
<path d="M145.398 15.5194C145.398 10.9009 148.226 7.4381 153.365 7.4381C158.504 7.4381 161.331 10.902 161.331 15.5194C161.331 20.1368 158.503 23.5721 153.365 23.5721C148.227 23.5721 145.398 20.1082 145.398 15.5194ZM149.352 15.5194C149.352 18.3763 150.68 20.5703 153.365 20.5703C156.049 20.5703 157.376 18.3763 157.376 15.5194C157.376 12.6625 156.048 10.4399 153.365 10.4399C150.681 10.4399 149.352 12.6339 149.352 15.5194Z" fill="#250144"/>
<path d="M163.368 7.75529H167.034L167.12 9.9493H167.178C168.13 8.39078 169.804 7.4381 171.911 7.4381C175.173 7.4381 177.279 9.57394 177.279 12.7777V23.2549H173.383V13.355C173.383 11.7668 172.43 10.4981 170.612 10.4981C168.534 10.4981 167.263 11.9699 167.263 13.9323V23.2549H163.367V7.75529H163.368Z" fill="#250144"/>
<path d="M193.97 7.7553L187.649 24.2943C186.437 27.4695 184.994 28.8546 182.136 28.8546C181.212 28.8546 180.519 28.7109 180 28.5375V25.7091C180.376 25.7958 180.809 25.8825 181.357 25.8825C182.742 25.8825 183.551 25.3633 184.099 23.6314L178.038 7.75639H182.166L186.062 19.2148H186.12L190.017 7.75639H193.971L193.97 7.7553Z" fill="#250144"/>
<path d="M207.823 17.8286H198.587L196.653 23.2549H192.469L200.81 1.08767H205.746L214.087 23.2549H209.757L207.823 17.8286ZM206.64 14.5382L203.234 5.01361H203.176L199.771 14.5382H206.64Z" fill="#00EAC3"/>
<path d="M219.51 1.08766H215.412V23.2549H219.51V1.08766Z" fill="#00EAC3"/>
</svg>
